# xmcd
#
# Track frame offsets:
# 150
# 16502
# 33629
# 43418
# 56361
# 70367
# 83691
# 97345
# 114323
# 127580
#
# Disc length: 1860 seconds
#
#
# Revision: 0
# Processed by: cddbd v1.5.2PL0 Copyright (c) Steve Scherf et al.
# Submitted via: FreeRIP 2.945 
#
DISCID=7b07420a
DTITLE=Georgia Holt - Honky Tonk Woman
DYEAR=2013
DGENRE=Country
TTITLE0=I'm Just Your Yesterday ft Cher
TTITLE1=I Sure Don't Want To Love You
TTITLE2=Movin' On
TTITLE3=Las Vega Blues
TTITLE4=I Bought The Love That You Gave Me
TTITLE5=I Wonder Where You Are Tonight
TTITLE6=Love Me Tender
TTITLE7=You Can't Go Home Again
TTITLE8=Homecoming Queen
TTITLE9=Cryin' Time
EXTD=
EXTT0=
EXTT1=
EXTT2=
EXTT3=
EXTT4=
EXTT5=
EXTT6=
EXTT7=
EXTT8=
EXTT9=
PLAYORDER=
